<?xml version="1.0" encoding="utf-8"?>
<!-- Generator: Adobe Illustrator 24.2.3, SVG Export Plug-In . SVG Version: 6.00 Build 0)  -->
<svg version="1.1" id="Layer_1" xmlns="http://www.w3.org/2000/svg" xmlns:xlink="http://www.w3.org/1999/xlink" x="0px" y="0px"
	 viewBox="0 0 373 186.16" style="enable-background:new 0 0 373 186.16;" xml:space="preserve">
<g>
	<g>
		<path d="M189.05,11.87c-32.4,29.77-64.79,59.54-97.19,89.31c-16.11,14.81-32.23,29.62-48.34,44.43
			c-8.14,7.48-16.28,14.96-24.42,22.44c-0.3,0.27-2.54,2.21-2.49,2.29c0.09,0.14,3.42-0.96,3.77-1.06c2.72-0.77,5.44-1.54,8.16-2.32
			c5.02-1.44,10.03-2.89,15.03-4.37c40.57-11.96,80.77-25.14,120.54-39.53c19.94-7.21,39.76-14.73,59.47-22.54
			c9.7-3.85,19.38-7.77,29.02-11.76c1.21-0.5,2.41-1,3.61-1.5c0.45-0.19,2.82-1.5,3.18-1.24c-0.04-0.03-1.83,1.13-1.74,1.08
			c-1.23,0.75-2.48,1.46-3.75,2.14c-1.07,0.58-2.16,1.14-3.25,1.69c-3.89,1.94-7.89,3.66-11.98,5.15
			c-31.76,11.59-68.47,9.49-98.48-6.2c-3.71-1.94-7.31-4.09-10.78-6.43c-0.03-0.02-0.86,0.45-0.87,0.5
			c-1.59,20.31-0.76,41.36,3.7,61.29c1.63,7.26,4.32,15.16,10.38,19.94c7.36,5.8,17.15,4.11,25.76,3.12
			c21.18-2.43,42.38-4.7,63.54-7.3c20.54-2.52,40.32-8.51,60.63-12.27c20.89-3.87,43.33-4.91,63.1,4.09c0.18,0.08,0.7-0.58,0.87-0.5
			c-37.44-17.05-78.06,1.31-115.79,7.1c-10.55,1.62-21.2,2.62-31.8,3.83c-10.54,1.21-21.07,2.42-31.61,3.62
			c-5.16,0.59-10.33,1.29-15.5,1.73c-4.58,0.39-9.36,0.43-13.7-1.27c-7.21-2.83-11.21-9.87-13.48-16.91
			c-1.49-4.63-2.34-9.43-3.11-14.22c-0.91-5.66-1.61-11.36-2.08-17.07c-0.98-11.87-0.98-23.81-0.04-35.69
			c-0.29,0.17-0.58,0.33-0.87,0.5c15.58,10.49,33.68,16.92,52.31,19.12c18.62,2.2,37.76,0.24,55.47-5.96
			c8.55-2.99,16.69-7,24.34-11.85c0,0,0.01-0.01,0.01-0.01c-29.09,12.16-58.45,23.67-88.05,34.51
			c-29.5,10.8-59.25,20.94-89.21,30.41c-15.03,4.75-30.12,9.33-45.25,13.74c-3.76,1.09-7.52,2.18-11.28,3.25
			c-1.78,0.51-3.56,1.01-5.33,1.51c-0.94,0.27-1.88,0.53-2.83,0.8c-0.16,0.05-1.24,0.38-1.26,0.35c-0.02-0.03,1.43-1.31,1.5-1.37
			c5.98-5.5,11.96-10.99,17.94-16.49c24.01-22.06,48.01-44.12,72.02-66.18s48.01-44.12,72.02-66.18c2.99-2.75,5.98-5.5,8.97-8.24
			C189.68,11.58,189.29,11.64,189.05,11.87L189.05,11.87z"/>
	</g>
</g>
</svg>
